# xmcd
#
# Track frame offsets:
#	150
#	14162
#	28267
#	42975
#	56967
#	68816
#	80197
#	92612
#	105622
#	118434
#	131640
#	144608
#	157207
#	170189
#	185317
#	197827
#	211989
#	225231
#	239040
#	252787
#	265019
#	277073
#	290502
#	304877
#	319923
#
# Disc length: 4452 seconds
# Revision: 1
# Processed by: cddbd v1.5.2PL0 Copyright (c) Steve Scherf et al.
# Submitted via: dBpowerAMP V12.0
#
DISCID=90116219
DTITLE=Gene Autry - Early Sides
DYEAR=1930
DGENRE=Country
TTITLE0=Yodeling Hobo
TTITLE1=Mean Mama Blues
TTITLE2=Blue Yodel No. 8
TTITLE3=Pistol Packin' Papa
TTITLE4=Dad in the Hills
TTITLE5=Pictures of My Mother
TTITLE6=Any Old Time
TTITLE7=Money Ain't No Use Anyway
TTITLE8=Blue Days
TTITLE9=A Gangster's Warning
TTITLE10=Pictures of My Mother
TTITLE11=That's How I Got My Start
TTITLE12=True Blue Bill
TTITLE13=Do Right Daddy Blues
TTITLE14=Money Ain't No Use Anyway
TTITLE15=That's How I Got My Start
TTITLE16=Bear Cat Papa Blues
TTITLE17=True Blue Bill
TTITLE18=A Gangster's Warning
TTITLE19=I'll Always Be a Rambler
TTITLE20=The Death of Mother Jones
TTITLE21=Bear Cat Papa Blues
TTITLE22=High Steppin' Mama Blues
TTITLE23=She Wouldn't Do It
TTITLE24=Don't Do Me That Way
EXTD=
EXTT0=
EXTT1=
EXTT2=
EXTT3=
EXTT4=
EXTT5=
EXTT6=
EXTT7=
EXTT8=
EXTT9=
EXTT10=
EXTT11=
EXTT12=
EXTT13=
EXTT14=
EXTT15=
EXTT16=
EXTT17=
EXTT18=
EXTT19=
EXTT20=
EXTT21=
EXTT22=
EXTT23=
EXTT24=
PLAYORDER=
